<svg xmlns="http://www.w3.org/2000/svg" style="display: none;">
  
  <!-- Home Icon -->
  <symbol id="icon-home" viewBox="0 0 24 24">
    <path fill="none" stroke="currentColor" stroke-width="2" stroke-linecap="round" stroke-linejoin="round" 
      d="M3 9l9-7 9 7v11a2 2 0 0 1-2 2H5a2 2 0 0 1-2-2z"/>
    <path fill="none" stroke="currentColor" stroke-width="2" stroke-linecap="round" stroke-linejoin="round" 
      d="M9 22V12h6v10"/>
  </symbol>

  <!-- Package/Loads Icon -->
  <symbol id="icon-package" viewBox="0 0 24 24">
    <path fill="none" stroke="currentColor" stroke-width="2" stroke-linecap="round" stroke-linejoin="round" 
      d="M16.5 9.4l-9-5.19M21 16V8a2 2 0 0 0-1-1.73l-7-4a2 2 0 0 0-2 0l-7 4A2 2 0 0 0 3 8v8a2 2 0 0 0 1 1.73l7 4a2 2 0 0 0 2 0l7-4A2 2 0 0 0 21 16z"/>
    <path fill="none" stroke="currentColor" stroke-width="2" stroke-linecap="round" stroke-linejoin="round" 
      d="M3.27 6.96L12 12.01l8.73-5.05M12 22.08V12"/>
  </symbol>

  <!-- Plus/Add Icon -->
  <symbol id="icon-plus" viewBox="0 0 24 24">
    <circle cx="12" cy="12" r="10" fill="none" stroke="currentColor" stroke-width="2"/>
    <path fill="none" stroke="currentColor" stroke-width="2" stroke-linecap="round" 
      d="M12 8v8M8 12h8"/>
  </symbol>

  <!-- Truck Icon -->
  <symbol id="icon-truck" viewBox="0 0 24 24">
    <path fill="none" stroke="currentColor" stroke-width="2" stroke-linecap="round" stroke-linejoin="round" 
      d="M1 3h15v13H1zM16 8h4l3 3v5h-7V8z"/>
    <circle cx="5.5" cy="18.5" r="2.5" fill="none" stroke="currentColor" stroke-width="2"/>
    <circle cx="18.5" cy="18.5" r="2.5" fill="none" stroke="currentColor" stroke-width="2"/>
  </symbol>

  <!-- User/Account Icon -->
  <symbol id="icon-user" viewBox="0 0 24 24">
    <path fill="none" stroke="currentColor" stroke-width="2" stroke-linecap="round" stroke-linejoin="round" 
      d="M20 21v-2a4 4 0 0 0-4-4H8a4 4 0 0 0-4 4v2"/>
    <circle cx="12" cy="7" r="4" fill="none" stroke="currentColor" stroke-width="2"/>
  </symbol>

  <!-- Parts/Gear Icon -->
  <symbol id="icon-parts" viewBox="0 0 24 24">
    <circle cx="12" cy="12" r="3" fill="none" stroke="currentColor" stroke-width="2"/>
    <path fill="none" stroke="currentColor" stroke-width="2" stroke-linecap="round" stroke-linejoin="round" 
      d="M12 1v6m0 6v6m10-7h-6m-6 0H4m15.364 6.364l-4.243-4.243m-6.243 0l-4.242 4.243m12.728-12.728l-4.243 4.243m-6.243 0L4.636 4.636"/>
  </symbol>

  <!-- Lubricants/Oil Icon -->
  <symbol id="icon-oil" viewBox="0 0 24 24">
    <path fill="none" stroke="currentColor" stroke-width="2" stroke-linecap="round" stroke-linejoin="round" 
      d="M6 2h12v6H6zM6 8h12v12a2 2 0 0 1-2 2H8a2 2 0 0 1-2-2V8z"/>
    <path fill="none" stroke="currentColor" stroke-width="2" stroke-linecap="round" 
      d="M9 12h6M9 16h6"/>
  </symbol>

  <!-- Tyres Icon -->
  <symbol id="icon-tyre" viewBox="0 0 24 24">
    <circle cx="12" cy="12" r="10" fill="none" stroke="currentColor" stroke-width="2"/>
    <circle cx="12" cy="12" r="6" fill="none" stroke="currentColor" stroke-width="2"/>
    <circle cx="12" cy="12" r="2" fill="currentColor"/>
    <path fill="none" stroke="currentColor" stroke-width="2" stroke-linecap="round" 
      d="M12 6v4M18 12h-4M12 18v-4M6 12h4"/>
  </symbol>

  <!-- Accessories/Control Panel Icon -->
  <symbol id="icon-accessories" viewBox="0 0 24 24">
    <rect x="2" y="2" width="20" height="20" rx="2" fill="none" stroke="currentColor" stroke-width="2"/>
    <circle cx="8" cy="8" r="2" fill="currentColor"/>
    <circle cx="16" cy="8" r="2" fill="currentColor"/>
    <circle cx="8" cy="16" r="2" fill="currentColor"/>
    <circle cx="16" cy="16" r="2" fill="currentColor"/>
  </symbol>

  <!-- Other/More Icon -->
  <symbol id="icon-more" viewBox="0 0 24 24">
    <rect x="3" y="3" width="7" height="7" rx="1" fill="none" stroke="currentColor" stroke-width="2"/>
    <rect x="14" y="3" width="7" height="7" rx="1" fill="none" stroke="currentColor" stroke-width="2"/>
    <rect x="3" y="14" width="7" height="7" rx="1" fill="none" stroke="currentColor" stroke-width="2"/>
    <rect x="14" y="14" width="7" height="7" rx="1" fill="none" stroke="currentColor" stroke-width="2"/>
  </symbol>

  <!-- Tracking/Location Icon -->
  <symbol id="icon-tracking" viewBox="0 0 24 24">
    <path fill="none" stroke="currentColor" stroke-width="2" stroke-linecap="round" stroke-linejoin="round" 
      d="M21 10c0 7-9 13-9 13s-9-6-9-13a9 9 0 0 1 18 0z"/>
    <circle cx="12" cy="10" r="3" fill="none" stroke="currentColor" stroke-width="2"/>
  </symbol>

  <!-- Repairs/Tools Icon -->
  <symbol id="icon-repairs" viewBox="0 0 24 24">
    <path fill="none" stroke="currentColor" stroke-width="2" stroke-linecap="round" stroke-linejoin="round" 
      d="M14.7 6.3a1 1 0 0 0 0 1.4l1.6 1.6a1 1 0 0 0 1.4 0l3.77-3.77a6 6 0 0 1-7.94 7.94l-6.91 6.91a2.12 2.12 0 0 1-3-3l6.91-6.91a6 6 0 0 1 7.94-7.94l-3.76 3.76z"/>
  </symbol>

  <!-- Insurance/Shield Icon -->
  <symbol id="icon-insurance" viewBox="0 0 24 24">
    <path fill="none" stroke="currentColor" stroke-width="2" stroke-linecap="round" stroke-linejoin="round" 
      d="M12 22s8-4 8-10V5l-8-3-8 3v7c0 6 8 10 8 10z"/>
    <path fill="none" stroke="currentColor" stroke-width="2" stroke-linecap="round" stroke-linejoin="round" 
      d="M9 12l2 2 4-4"/>
  </symbol>

  <!-- Customs/Document Icon -->
  <symbol id="icon-customs" viewBox="0 0 24 24">
    <path fill="none" stroke="currentColor" stroke-width="2" stroke-linecap="round" stroke-linejoin="round" 
      d="M14 2H6a2 2 0 0 0-2 2v16a2 2 0 0 0 2 2h12a2 2 0 0 0 2-2V8z"/>
    <path fill="none" stroke="currentColor" stroke-width="2" stroke-linecap="round" stroke-linejoin="round" 
      d="M14 2v6h6M16 13H8M16 17H8M10 9H8"/>
  </symbol>

  <!-- Towing/Hook Icon -->
  <symbol id="icon-towing" viewBox="0 0 24 24">
    <path fill="none" stroke="currentColor" stroke-width="2" stroke-linecap="round" stroke-linejoin="round" 
      d="M10 15h4M19 17a2 2 0 1 1 0 4 2 2 0 0 1 0-4zM7 17a2 2 0 1 1 0 4 2 2 0 0 1 0-4z"/>
    <path fill="none" stroke="currentColor" stroke-width="2" stroke-linecap="round" stroke-linejoin="round" 
      d="M5 11V6a1 1 0 0 1 1-1h6M18 17h-2v-6M9 21h6M9 17h6"/>
    <path fill="none" stroke="currentColor" stroke-width="2" stroke-linecap="round" stroke-linejoin="round" 
      d="M16 5l5 5-5 5"/>
  </symbol>

  <!-- Transport Hire/Truck Rental Icon -->
  <symbol id="icon-transport-hire" viewBox="0 0 24 24">
    <path fill="none" stroke="currentColor" stroke-width="2" stroke-linecap="round" stroke-linejoin="round" 
      d="M1 3h15v13H1zM16 8h4l3 3v5h-7V8z"/>
    <circle cx="5.5" cy="18.5" r="2.5" fill="none" stroke="currentColor" stroke-width="2"/>
    <circle cx="18.5" cy="18.5" r="2.5" fill="none" stroke="currentColor" stroke-width="2"/>
    <path fill="none" stroke="currentColor" stroke-width="2" stroke-linecap="round" 
      d="M8 8h4M8 11h4"/>
  </symbol>

  <!-- Escort/Police Car Icon -->
  <symbol id="icon-escort" viewBox="0 0 24 24">
    <path fill="none" stroke="currentColor" stroke-width="2" stroke-linecap="round" stroke-linejoin="round" 
      d="M7 17m-2 0a2 2 0 1 0 4 0a2 2 0 1 0 -4 0"/>
    <path fill="none" stroke="currentColor" stroke-width="2" stroke-linecap="round" stroke-linejoin="round" 
      d="M17 17m-2 0a2 2 0 1 0 4 0a2 2 0 1 0 -4 0"/>
    <path fill="none" stroke="currentColor" stroke-width="2" stroke-linecap="round" stroke-linejoin="round" 
      d="M5 17H3v-6l2-5h9l4 5h1a2 2 0 0 1 2 2v4h-2M4 12h10M11 6L8 12"/>
    <circle cx="12" cy="4" r="2" fill="currentColor"/>
  </symbol>

  <!-- Fuel Supplies Icon -->
  <symbol id="icon-fuel" viewBox="0 0 24 24">
    <path fill="none" stroke="currentColor" stroke-width="2" stroke-linecap="round" stroke-linejoin="round" 
      d="M3 4h10v14H3zM13 7h2a2 2 0 0 1 2 2v6a1 1 0 0 0 1 1h1a1 1 0 0 0 1-1V9l-2-2M6 11h4"/>
    <path fill="none" stroke="currentColor" stroke-width="2" stroke-linecap="round" 
      d="M5 22h8"/>
  </symbol>

  <!-- Tyre Repairs/Wrench Icon -->
  <symbol id="icon-tyre-repairs" viewBox="0 0 24 24">
    <circle cx="12" cy="12" r="10" fill="none" stroke="currentColor" stroke-width="2"/>
    <path fill="none" stroke="currentColor" stroke-width="2" stroke-linecap="round" stroke-linejoin="round" 
      d="M10 8l-2 2 2 2-2 2M14 8l2 2-2 2 2 2"/>
  </symbol>

  <!-- Earthmoving/Construction Icon -->
  <symbol id="icon-earthmoving" viewBox="0 0 24 24">
    <path fill="none" stroke="currentColor" stroke-width="2" stroke-linecap="round" stroke-linejoin="round" 
      d="M2 18h7l4-7h4l2 3v5h3"/>
    <circle cx="6" cy="20" r="2" fill="none" stroke="currentColor" stroke-width="2"/>
    <circle cx="16" cy="20" r="2" fill="none" stroke="currentColor" stroke-width="2"/>
    <path fill="none" stroke="currentColor" stroke-width="2" stroke-linecap="round" stroke-linejoin="round" 
      d="M12 4L10 8l2 1 1-4z"/>
  </symbol>

  <!-- Warehousing/Building Icon -->
  <symbol id="icon-warehousing" viewBox="0 0 24 24">
    <path fill="none" stroke="currentColor" stroke-width="2" stroke-linecap="round" stroke-linejoin="round" 
      d="M3 21h18M4 21V8l8-5 8 5v13M9 21v-6h6v6"/>
    <path fill="none" stroke="currentColor" stroke-width="2" stroke-linecap="round" 
      d="M9 12h6"/>
  </symbol>

  <!-- Other Services/Bank Icon -->
  <symbol id="icon-services" viewBox="0 0 24 24">
    <rect x="2" y="6" width="20" height="12" rx="2" fill="none" stroke="currentColor" stroke-width="2"/>
    <path fill="none" stroke="currentColor" stroke-width="2" stroke-linecap="round" 
      d="M12 6V2M6 6V2M18 6V2M2 10h20"/>
  </symbol>

</svg>

